<mxfile host="app.diagrams.net" agent="Mozilla/5.0 (Windows NT 10.0; Win64; x64) AppleWebKit/537.36 (KHTML, like Gecko) Chrome/131.0.0.0 Safari/537.36" version="25.0.3">
  <diagram name="Trang-1" id="EjvwFrkTnWvs1sAY93bY">
    <mxGraphModel dx="1050" dy="653" grid="1" gridSize="10" guides="1" tooltips="1" connect="1" arrows="1" fold="1" page="1" pageScale="1" pageWidth="827" pageHeight="1169" math="0" shadow="0">
      <root>
        <mxCell id="0" />
        <mxCell id="1" parent="0" />
        <mxCell id="3--hrcypPKUlUtIGn8xM-17" value="End" style="strokeWidth=2;html=1;shape=mxgraph.flowchart.start_1;whiteSpace=wrap;" vertex="1" parent="1">
          <mxGeometry x="60" y="580" width="100" height="60" as="geometry" />
        </mxCell>
        <mxCell id="3--hrcypPKUlUtIGn8xM-27" style="edgeStyle=orthogonalEdgeStyle;rounded=0;orthogonalLoop=1;jettySize=auto;html=1;" edge="1" parent="1" source="3--hrcypPKUlUtIGn8xM-18" target="3--hrcypPKUlUtIGn8xM-19">
          <mxGeometry relative="1" as="geometry" />
        </mxCell>
        <mxCell id="3--hrcypPKUlUtIGn8xM-18" value="Start" style="strokeWidth=2;html=1;shape=mxgraph.flowchart.start_1;whiteSpace=wrap;" vertex="1" parent="1">
          <mxGeometry x="60" y="50" width="100" height="60" as="geometry" />
        </mxCell>
        <mxCell id="3--hrcypPKUlUtIGn8xM-26" style="edgeStyle=orthogonalEdgeStyle;rounded=0;orthogonalLoop=1;jettySize=auto;html=1;" edge="1" parent="1" source="3--hrcypPKUlUtIGn8xM-19" target="3--hrcypPKUlUtIGn8xM-23">
          <mxGeometry relative="1" as="geometry" />
        </mxCell>
        <mxCell id="3--hrcypPKUlUtIGn8xM-19" value="score" style="shape=parallelogram;html=1;strokeWidth=2;perimeter=parallelogramPerimeter;whiteSpace=wrap;rounded=1;arcSize=12;size=0.23;" vertex="1" parent="1">
          <mxGeometry x="60" y="150" width="100" height="60" as="geometry" />
        </mxCell>
        <mxCell id="3--hrcypPKUlUtIGn8xM-20" value="&lt;span style=&quot;font-family: Roboto, sans-serif; font-size: 16px; text-align: left; white-space-collapse: preserve; background-color: rgb(255, 255, 255);&quot;&gt;6 &amp;lt; score &amp;lt;= 8&lt;/span&gt;" style="strokeWidth=2;html=1;shape=mxgraph.flowchart.decision;whiteSpace=wrap;" vertex="1" parent="1">
          <mxGeometry x="460" y="260" width="140" height="100" as="geometry" />
        </mxCell>
        <mxCell id="3--hrcypPKUlUtIGn8xM-31" style="edgeStyle=orthogonalEdgeStyle;rounded=0;orthogonalLoop=1;jettySize=auto;html=1;" edge="1" parent="1" source="3--hrcypPKUlUtIGn8xM-21" target="3--hrcypPKUlUtIGn8xM-30">
          <mxGeometry relative="1" as="geometry" />
        </mxCell>
        <mxCell id="3--hrcypPKUlUtIGn8xM-21" value="&lt;span style=&quot;font-family: Roboto, sans-serif; font-size: 16px; text-align: left; white-space-collapse: preserve; background-color: rgb(255, 255, 255);&quot;&gt;8 &amp;lt; score &amp;lt;= 9&lt;/span&gt;" style="strokeWidth=2;html=1;shape=mxgraph.flowchart.decision;whiteSpace=wrap;" vertex="1" parent="1">
          <mxGeometry x="250" y="260" width="140" height="100" as="geometry" />
        </mxCell>
        <mxCell id="3--hrcypPKUlUtIGn8xM-39" style="edgeStyle=orthogonalEdgeStyle;rounded=0;orthogonalLoop=1;jettySize=auto;html=1;" edge="1" parent="1" source="3--hrcypPKUlUtIGn8xM-22" target="3--hrcypPKUlUtIGn8xM-34">
          <mxGeometry relative="1" as="geometry" />
        </mxCell>
        <mxCell id="3--hrcypPKUlUtIGn8xM-22" value="&lt;span style=&quot;font-family: Roboto, sans-serif; font-size: 16px; text-align: left; white-space-collapse: preserve; background-color: rgb(255, 255, 255);&quot;&gt;4 &amp;lt;= score &amp;lt;= 6&lt;/span&gt;" style="strokeWidth=2;html=1;shape=mxgraph.flowchart.decision;whiteSpace=wrap;" vertex="1" parent="1">
          <mxGeometry x="660" y="260" width="140" height="100" as="geometry" />
        </mxCell>
        <mxCell id="3--hrcypPKUlUtIGn8xM-23" value="&lt;span style=&quot;font-family: Roboto, sans-serif; font-size: 16px; text-align: left; white-space-collapse: preserve; background-color: rgb(255, 255, 255);&quot;&gt;9 &amp;lt; score &amp;lt;=10&lt;/span&gt;" style="strokeWidth=2;html=1;shape=mxgraph.flowchart.decision;whiteSpace=wrap;" vertex="1" parent="1">
          <mxGeometry x="35" y="260" width="150" height="100" as="geometry" />
        </mxCell>
        <mxCell id="3--hrcypPKUlUtIGn8xM-24" value="Xuất sắc" style="strokeWidth=2;html=1;shape=mxgraph.flowchart.display;whiteSpace=wrap;" vertex="1" parent="1">
          <mxGeometry x="60" y="440" width="100" height="60" as="geometry" />
        </mxCell>
        <mxCell id="3--hrcypPKUlUtIGn8xM-25" style="edgeStyle=orthogonalEdgeStyle;rounded=0;orthogonalLoop=1;jettySize=auto;html=1;entryX=0.5;entryY=0;entryDx=0;entryDy=0;entryPerimeter=0;" edge="1" parent="1" source="3--hrcypPKUlUtIGn8xM-23" target="3--hrcypPKUlUtIGn8xM-24">
          <mxGeometry relative="1" as="geometry" />
        </mxCell>
        <mxCell id="3--hrcypPKUlUtIGn8xM-28" style="edgeStyle=orthogonalEdgeStyle;rounded=0;orthogonalLoop=1;jettySize=auto;html=1;entryX=0.5;entryY=0;entryDx=0;entryDy=0;entryPerimeter=0;" edge="1" parent="1" source="3--hrcypPKUlUtIGn8xM-24" target="3--hrcypPKUlUtIGn8xM-17">
          <mxGeometry relative="1" as="geometry" />
        </mxCell>
        <mxCell id="3--hrcypPKUlUtIGn8xM-29" style="edgeStyle=orthogonalEdgeStyle;rounded=0;orthogonalLoop=1;jettySize=auto;html=1;entryX=0;entryY=0.5;entryDx=0;entryDy=0;entryPerimeter=0;" edge="1" parent="1" source="3--hrcypPKUlUtIGn8xM-23" target="3--hrcypPKUlUtIGn8xM-21">
          <mxGeometry relative="1" as="geometry" />
        </mxCell>
        <mxCell id="3--hrcypPKUlUtIGn8xM-30" value="Giỏi" style="strokeWidth=2;html=1;shape=mxgraph.flowchart.display;whiteSpace=wrap;" vertex="1" parent="1">
          <mxGeometry x="270" y="440" width="100" height="60" as="geometry" />
        </mxCell>
        <mxCell id="3--hrcypPKUlUtIGn8xM-32" style="edgeStyle=orthogonalEdgeStyle;rounded=0;orthogonalLoop=1;jettySize=auto;html=1;entryX=1;entryY=0.5;entryDx=0;entryDy=0;entryPerimeter=0;" edge="1" parent="1" source="3--hrcypPKUlUtIGn8xM-30" target="3--hrcypPKUlUtIGn8xM-17">
          <mxGeometry relative="1" as="geometry">
            <Array as="points">
              <mxPoint x="320" y="610" />
            </Array>
          </mxGeometry>
        </mxCell>
        <mxCell id="3--hrcypPKUlUtIGn8xM-33" value="Khá" style="strokeWidth=2;html=1;shape=mxgraph.flowchart.display;whiteSpace=wrap;" vertex="1" parent="1">
          <mxGeometry x="480" y="440" width="100" height="60" as="geometry" />
        </mxCell>
        <mxCell id="3--hrcypPKUlUtIGn8xM-34" value="Trung bình" style="strokeWidth=2;html=1;shape=mxgraph.flowchart.display;whiteSpace=wrap;" vertex="1" parent="1">
          <mxGeometry x="680" y="440" width="100" height="60" as="geometry" />
        </mxCell>
        <mxCell id="3--hrcypPKUlUtIGn8xM-35" value="Không đạt" style="strokeWidth=2;html=1;shape=mxgraph.flowchart.display;whiteSpace=wrap;" vertex="1" parent="1">
          <mxGeometry x="840" y="280" width="100" height="60" as="geometry" />
        </mxCell>
        <mxCell id="3--hrcypPKUlUtIGn8xM-36" style="edgeStyle=orthogonalEdgeStyle;rounded=0;orthogonalLoop=1;jettySize=auto;html=1;entryX=0.5;entryY=0;entryDx=0;entryDy=0;entryPerimeter=0;" edge="1" parent="1" source="3--hrcypPKUlUtIGn8xM-20" target="3--hrcypPKUlUtIGn8xM-33">
          <mxGeometry relative="1" as="geometry" />
        </mxCell>
        <mxCell id="3--hrcypPKUlUtIGn8xM-37" style="edgeStyle=orthogonalEdgeStyle;rounded=0;orthogonalLoop=1;jettySize=auto;html=1;entryX=0;entryY=0.5;entryDx=0;entryDy=0;entryPerimeter=0;" edge="1" parent="1" source="3--hrcypPKUlUtIGn8xM-21" target="3--hrcypPKUlUtIGn8xM-20">
          <mxGeometry relative="1" as="geometry" />
        </mxCell>
        <mxCell id="3--hrcypPKUlUtIGn8xM-38" style="edgeStyle=orthogonalEdgeStyle;rounded=0;orthogonalLoop=1;jettySize=auto;html=1;entryX=1;entryY=0.5;entryDx=0;entryDy=0;entryPerimeter=0;" edge="1" parent="1" source="3--hrcypPKUlUtIGn8xM-33" target="3--hrcypPKUlUtIGn8xM-17">
          <mxGeometry relative="1" as="geometry">
            <Array as="points">
              <mxPoint x="530" y="610" />
            </Array>
          </mxGeometry>
        </mxCell>
        <mxCell id="3--hrcypPKUlUtIGn8xM-40" style="edgeStyle=orthogonalEdgeStyle;rounded=0;orthogonalLoop=1;jettySize=auto;html=1;entryX=0;entryY=0.5;entryDx=0;entryDy=0;entryPerimeter=0;" edge="1" parent="1" source="3--hrcypPKUlUtIGn8xM-20" target="3--hrcypPKUlUtIGn8xM-22">
          <mxGeometry relative="1" as="geometry" />
        </mxCell>
        <mxCell id="3--hrcypPKUlUtIGn8xM-41" style="edgeStyle=orthogonalEdgeStyle;rounded=0;orthogonalLoop=1;jettySize=auto;html=1;entryX=1;entryY=0.5;entryDx=0;entryDy=0;entryPerimeter=0;" edge="1" parent="1" source="3--hrcypPKUlUtIGn8xM-34" target="3--hrcypPKUlUtIGn8xM-17">
          <mxGeometry relative="1" as="geometry">
            <Array as="points">
              <mxPoint x="730" y="610" />
            </Array>
          </mxGeometry>
        </mxCell>
        <mxCell id="3--hrcypPKUlUtIGn8xM-43" style="edgeStyle=orthogonalEdgeStyle;rounded=0;orthogonalLoop=1;jettySize=auto;html=1;entryX=0;entryY=0.5;entryDx=0;entryDy=0;entryPerimeter=0;" edge="1" parent="1" source="3--hrcypPKUlUtIGn8xM-22" target="3--hrcypPKUlUtIGn8xM-35">
          <mxGeometry relative="1" as="geometry" />
        </mxCell>
        <mxCell id="3--hrcypPKUlUtIGn8xM-44" style="edgeStyle=orthogonalEdgeStyle;rounded=0;orthogonalLoop=1;jettySize=auto;html=1;entryX=1;entryY=0.5;entryDx=0;entryDy=0;entryPerimeter=0;" edge="1" parent="1" source="3--hrcypPKUlUtIGn8xM-35" target="3--hrcypPKUlUtIGn8xM-17">
          <mxGeometry relative="1" as="geometry">
            <Array as="points">
              <mxPoint x="900" y="610" />
            </Array>
          </mxGeometry>
        </mxCell>
        <mxCell id="3--hrcypPKUlUtIGn8xM-45" value="True" style="text;html=1;align=center;verticalAlign=middle;resizable=0;points=[];autosize=1;strokeColor=none;fillColor=none;" vertex="1" parent="1">
          <mxGeometry x="55" y="388" width="50" height="30" as="geometry" />
        </mxCell>
        <mxCell id="3--hrcypPKUlUtIGn8xM-46" value="False" style="text;html=1;align=center;verticalAlign=middle;resizable=0;points=[];autosize=1;strokeColor=none;fillColor=none;" vertex="1" parent="1">
          <mxGeometry x="185" y="280" width="50" height="30" as="geometry" />
        </mxCell>
        <mxCell id="3--hrcypPKUlUtIGn8xM-47" value="True" style="text;html=1;align=center;verticalAlign=middle;resizable=0;points=[];autosize=1;strokeColor=none;fillColor=none;" vertex="1" parent="1">
          <mxGeometry x="680" y="388" width="50" height="30" as="geometry" />
        </mxCell>
        <mxCell id="3--hrcypPKUlUtIGn8xM-48" value="True" style="text;html=1;align=center;verticalAlign=middle;resizable=0;points=[];autosize=1;strokeColor=none;fillColor=none;" vertex="1" parent="1">
          <mxGeometry x="480" y="388" width="50" height="30" as="geometry" />
        </mxCell>
        <mxCell id="3--hrcypPKUlUtIGn8xM-49" value="True" style="text;html=1;align=center;verticalAlign=middle;resizable=0;points=[];autosize=1;strokeColor=none;fillColor=none;" vertex="1" parent="1">
          <mxGeometry x="270" y="388" width="50" height="30" as="geometry" />
        </mxCell>
        <mxCell id="3--hrcypPKUlUtIGn8xM-51" value="False" style="text;html=1;align=center;verticalAlign=middle;resizable=0;points=[];autosize=1;strokeColor=none;fillColor=none;" vertex="1" parent="1">
          <mxGeometry x="790" y="280" width="50" height="30" as="geometry" />
        </mxCell>
        <mxCell id="3--hrcypPKUlUtIGn8xM-52" value="False" style="text;html=1;align=center;verticalAlign=middle;resizable=0;points=[];autosize=1;strokeColor=none;fillColor=none;" vertex="1" parent="1">
          <mxGeometry x="600" y="280" width="50" height="30" as="geometry" />
        </mxCell>
        <mxCell id="3--hrcypPKUlUtIGn8xM-53" value="False" style="text;html=1;align=center;verticalAlign=middle;resizable=0;points=[];autosize=1;strokeColor=none;fillColor=none;" vertex="1" parent="1">
          <mxGeometry x="400" y="280" width="50" height="30" as="geometry" />
        </mxCell>
      </root>
    </mxGraphModel>
  </diagram>
</mxfile>
